<svg 
 xmlns="http://www.w3.org/2000/svg"
 xmlns:xlink="http://www.w3.org/1999/xlink"
 width="39px" height="42px" viewBox="0 0 39 42">
<path fill-rule="evenodd"  fill="rgb(195, 195, 195)"
 d="M36.933,5.272 L36.933,27.694 C36.933,28.274 36.467,28.744 35.892,28.744 L27.314,28.744 L29.946,39.899 L31.300,39.899 C31.875,39.899 32.341,40.369 32.341,40.949 C32.341,41.529 31.875,42.000 31.300,42.000 L27.598,42.000 C27.023,42.000 26.557,41.529 26.557,40.949 C26.557,40.369 27.023,39.899 27.598,39.899 L27.805,39.899 L25.173,28.744 L18.108,28.744 L15.476,39.899 L15.684,39.899 C16.258,39.899 16.725,40.369 16.725,40.949 C16.725,41.529 16.258,42.000 15.684,42.000 L11.982,42.000 C11.407,42.000 10.941,41.529 10.941,40.949 C10.941,40.369 11.407,39.899 11.982,39.899 L13.336,39.899 L15.968,28.744 L7.390,28.744 C7.287,28.744 7.189,28.729 7.095,28.701 L3.125,32.823 C2.628,33.339 1.811,33.350 1.300,32.849 C0.788,32.348 0.777,31.523 1.274,31.007 C1.281,30.999 1.292,30.988 1.300,30.980 L6.349,26.029 L6.349,5.272 C5.215,4.966 4.376,3.923 4.376,2.683 C4.376,1.203 5.569,-0.000 7.036,-0.000 L36.247,-0.000 C37.713,-0.000 38.906,1.203 38.906,2.683 C38.906,3.923 38.068,4.966 36.933,5.272 ZM8.431,23.987 L13.845,18.678 C14.258,18.273 14.917,18.283 15.318,18.699 C15.711,19.108 15.708,19.757 15.318,20.164 L9.077,26.643 L34.852,26.643 L34.852,5.366 L8.431,5.366 L8.431,23.987 ZM36.247,2.101 L7.036,2.101 C6.717,2.101 6.459,2.362 6.459,2.683 C6.459,3.004 6.717,3.265 7.036,3.265 L36.247,3.265 C36.565,3.265 36.824,3.004 36.824,2.683 C36.824,2.362 36.565,2.101 36.247,2.101 ZM30.783,23.312 L20.277,23.312 C19.702,23.312 19.236,22.841 19.236,22.261 C19.236,21.681 19.702,21.211 20.277,21.211 L20.600,21.211 L20.600,16.005 C20.600,15.425 21.066,14.954 21.641,14.954 C22.216,14.954 22.682,15.425 22.682,16.005 L22.682,21.211 L24.273,21.211 L24.273,10.505 C24.273,9.925 24.739,9.454 25.314,9.454 C25.889,9.454 26.355,9.925 26.355,10.505 L26.355,21.211 L27.946,21.211 L27.946,11.905 C27.946,11.325 28.412,10.855 28.987,10.855 C29.562,10.855 30.028,11.325 30.028,11.905 L30.028,21.211 L30.783,21.211 C31.358,21.211 31.824,21.681 31.824,22.261 C31.824,22.841 31.358,23.312 30.783,23.312 Z"/>
</svg>