<svg 
 xmlns="http://www.w3.org/2000/svg"
 xmlns:xlink="http://www.w3.org/1999/xlink"
 width="28px" height="42px" viewBox="0 0 28 42">
<path fill-rule="evenodd"  fill="rgb(195, 195, 195)"
 d="M27.150,15.190 L24.244,15.190 C23.774,15.190 23.393,15.594 23.393,16.092 C23.393,16.591 23.774,16.995 24.244,16.995 L24.872,16.995 L24.872,21.734 L22.973,22.806 C22.506,22.158 21.771,21.746 20.968,21.746 L16.324,21.746 L16.324,19.327 L19.175,19.327 C19.963,19.327 20.698,18.994 21.243,18.390 C21.788,17.785 22.069,16.992 22.034,16.157 L21.482,2.902 C21.413,1.274 20.157,-0.000 18.622,-0.000 L9.679,-0.000 C8.143,-0.000 6.887,1.274 6.819,2.902 L6.267,16.157 C6.232,16.992 6.513,17.785 7.058,18.390 C7.603,18.994 8.338,19.327 9.126,19.327 L11.977,19.327 L11.977,21.746 L7.043,21.746 C6.216,21.746 5.469,22.174 5.007,22.847 L4.797,22.729 L3.129,21.786 L3.129,18.429 L3.129,17.047 L3.756,17.047 C4.226,17.047 4.607,16.643 4.607,16.145 C4.607,15.647 4.226,15.243 3.756,15.243 L0.851,15.243 C0.381,15.243 0.000,15.647 0.000,16.145 C0.000,16.643 0.381,17.047 0.851,17.047 L1.427,17.047 L1.427,22.328 C1.427,22.661 1.601,22.967 1.878,23.124 L4.454,24.579 L4.335,25.260 C4.199,26.043 4.395,26.842 4.875,27.454 C5.355,28.066 6.060,28.417 6.811,28.417 L11.512,28.417 L11.512,30.171 C11.512,30.670 11.893,31.074 12.362,31.074 L13.314,31.074 C13.305,31.126 13.300,31.178 13.300,31.232 L13.300,33.461 C10.000,33.530 6.722,34.001 3.545,34.864 C3.169,34.967 2.906,35.327 2.906,35.739 L2.906,37.685 C2.159,38.033 1.636,38.824 1.636,39.743 C1.636,40.983 2.587,41.991 3.756,41.991 C4.925,41.991 5.876,40.983 5.876,39.743 C5.876,38.824 5.353,38.033 4.607,37.685 L4.607,36.444 C7.446,35.725 10.363,35.330 13.300,35.266 L13.300,37.697 C12.558,38.048 12.038,38.836 12.038,39.751 C12.038,40.991 12.989,42.000 14.158,42.000 C15.327,42.000 16.278,40.991 16.278,39.751 C16.278,38.829 15.751,38.036 15.001,37.689 L15.001,35.266 C17.937,35.330 20.854,35.725 23.693,36.444 L23.693,37.685 C22.947,38.033 22.424,38.824 22.424,39.743 C22.424,40.983 23.375,41.991 24.544,41.991 C25.713,41.991 26.664,40.983 26.664,39.743 C26.664,38.824 26.141,38.033 25.395,37.685 L25.395,35.761 C25.405,35.349 25.146,34.971 24.755,34.864 C21.578,34.001 18.300,33.530 15.001,33.461 L15.001,31.232 C15.001,31.178 14.995,31.126 14.987,31.074 L15.938,31.074 C16.408,31.074 16.789,30.670 16.789,30.172 L16.789,28.417 L21.239,28.417 C22.004,28.417 22.718,28.055 23.199,27.424 C23.679,26.792 23.862,25.975 23.700,25.183 L23.564,24.516 L26.122,23.071 C26.399,22.914 26.573,22.609 26.573,22.275 L26.573,16.995 L27.149,16.995 C27.619,16.995 28.000,16.591 28.000,16.092 C28.000,15.594 27.619,15.190 27.150,15.190 ZM3.338,39.743 C3.338,39.498 3.525,39.299 3.756,39.299 C3.987,39.299 4.175,39.498 4.175,39.743 C4.175,39.988 3.987,40.187 3.756,40.187 C3.525,40.187 3.338,39.988 3.338,39.743 ZM24.126,39.743 C24.126,39.498 24.313,39.299 24.544,39.299 C24.775,39.299 24.963,39.498 24.963,39.743 C24.963,39.988 24.775,40.187 24.544,40.187 C24.313,40.187 24.126,39.988 24.126,39.743 ZM14.158,40.195 C13.927,40.195 13.740,39.996 13.740,39.751 C13.740,39.506 13.927,39.307 14.158,39.307 C14.389,39.307 14.577,39.506 14.577,39.751 C14.577,39.996 14.389,40.195 14.158,40.195 ZM15.088,29.269 L13.213,29.269 L13.213,28.417 L15.088,28.417 L15.088,29.269 ZM6.811,26.613 C6.478,26.613 6.275,26.417 6.183,26.301 C6.091,26.184 5.947,25.936 6.008,25.589 L6.241,24.258 C6.312,23.848 6.650,23.550 7.043,23.550 L20.968,23.550 C21.350,23.550 21.686,23.837 21.766,24.233 L22.038,25.564 C22.090,25.821 22.031,26.086 21.875,26.291 C21.720,26.495 21.488,26.613 21.240,26.613 L6.811,26.613 ZM8.287,17.142 C8.066,16.897 7.952,16.575 7.966,16.236 L8.519,2.981 C8.546,2.321 9.056,1.804 9.679,1.804 L18.622,1.804 C19.245,1.804 19.754,2.321 19.782,2.981 L20.335,16.236 C20.349,16.575 20.235,16.897 20.014,17.142 C19.792,17.387 19.494,17.523 19.174,17.523 L9.126,17.523 C8.806,17.523 8.508,17.387 8.287,17.142 ZM14.623,19.327 L14.623,21.746 L13.678,21.746 L13.678,19.327 L14.623,19.327 Z"/>
</svg>