<svg 
 xmlns="http://www.w3.org/2000/svg"
 xmlns:xlink="http://www.w3.org/1999/xlink"
 width="48px" height="42px" viewBox="0 0 48 42">
<path fill-rule="evenodd"  fill="rgb(255, 255, 255)"
 d="M47.584,28.387 L33.433,41.277 L33.271,41.424 C32.357,42.257 30.952,42.178 30.134,41.247 C29.927,41.012 29.775,40.735 29.681,40.453 L27.208,32.890 C26.987,32.217 27.345,31.489 28.007,31.265 C28.536,31.086 29.100,31.285 29.417,31.715 L32.439,35.831 L46.047,26.390 C46.617,25.995 47.394,26.145 47.782,26.725 C48.140,27.258 48.044,27.969 47.584,28.387 ZM8.877,29.621 L18.946,29.621 C19.634,29.621 20.192,30.188 20.192,30.889 C20.192,31.589 19.634,32.157 18.946,32.157 L8.877,32.157 C8.188,32.157 7.630,31.589 7.630,30.889 C7.630,30.188 8.188,29.621 8.877,29.621 ZM29.016,26.943 L8.877,26.943 C8.188,26.943 7.630,26.375 7.630,25.674 C7.630,24.974 8.188,24.406 8.877,24.406 L29.016,24.406 C29.704,24.406 30.262,24.974 30.262,25.674 C30.262,26.375 29.704,26.943 29.016,26.943 ZM29.016,21.461 L8.877,21.461 C8.188,21.461 7.630,20.893 7.630,20.193 C7.630,19.493 8.188,18.925 8.877,18.925 L29.016,18.925 C29.704,18.925 30.262,19.493 30.262,20.193 C30.262,20.893 29.704,21.461 29.016,21.461 ZM29.016,10.498 L8.877,10.498 C8.188,10.498 7.630,9.930 7.630,9.230 C7.630,8.530 8.188,7.962 8.877,7.962 L29.016,7.962 C29.704,7.962 30.262,8.530 30.262,9.230 C30.262,9.930 29.704,10.498 29.016,10.498 ZM29.016,15.980 L8.877,15.980 C8.188,15.980 7.630,15.412 7.630,14.711 C7.630,14.011 8.188,13.443 8.877,13.443 L29.016,13.443 C29.704,13.443 30.262,14.011 30.262,14.711 C30.262,15.412 29.704,15.980 29.016,15.980 ZM36.646,30.187 C35.958,30.187 35.400,29.619 35.400,28.919 L35.400,2.536 L2.492,2.536 L2.492,36.880 L24.969,36.880 C25.657,36.880 26.215,37.448 26.215,38.148 C26.215,38.848 25.657,39.417 24.969,39.417 L1.246,39.417 C0.558,39.417 0.000,38.848 0.000,38.148 L0.000,1.268 C0.000,0.568 0.558,-0.000 1.246,-0.000 L36.646,-0.000 C37.335,-0.000 37.893,0.568 37.893,1.268 L37.893,28.919 C37.893,29.619 37.335,30.187 36.646,30.187 Z"/>
</svg>