<svg 
 xmlns="http://www.w3.org/2000/svg"
 xmlns:xlink="http://www.w3.org/1999/xlink"
 width="29px" height="44px" viewBox="0 0 29 44">
<path fill-rule="evenodd"  fill="rgb(195, 195, 195)"
 d="M28.109,37.766 L26.105,37.766 L23.051,33.436 L28.871,14.353 C28.900,14.259 28.915,14.161 28.915,14.062 C28.915,6.308 22.965,-0.000 15.652,-0.000 C12.334,-0.000 9.158,1.306 6.710,3.677 C6.522,3.858 6.416,4.116 6.420,4.386 C6.423,4.655 6.535,4.911 6.727,5.087 L10.256,8.335 L3.580,15.332 C2.593,16.367 2.553,18.028 3.490,19.114 L5.654,21.621 C5.892,21.898 6.263,21.998 6.598,21.878 L13.978,19.219 C14.136,19.325 14.298,19.424 14.465,19.514 L5.667,29.326 C3.640,31.587 2.807,34.749 3.395,37.766 L0.891,37.766 C0.399,37.766 0.000,38.189 0.000,38.710 L0.000,43.055 C0.000,43.577 0.399,44.000 0.891,44.000 L28.109,44.000 C28.601,44.000 29.000,43.577 29.000,43.055 L29.000,38.710 C29.000,38.189 28.601,37.766 28.109,37.766 ZM6.958,30.627 L16.384,20.115 C16.578,20.137 16.773,20.152 16.971,20.152 C20.038,20.152 22.533,17.505 22.533,14.254 C22.533,12.678 21.954,11.197 20.904,10.083 C20.556,9.714 19.992,9.714 19.644,10.083 C19.296,10.452 19.296,11.050 19.644,11.419 C20.358,12.176 20.751,13.183 20.751,14.254 C20.751,16.464 19.055,18.262 16.971,18.262 C15.629,18.262 14.376,17.498 13.700,16.267 C13.452,15.816 12.907,15.663 12.482,15.926 C12.057,16.188 11.913,16.766 12.160,17.217 C12.264,17.405 12.378,17.584 12.499,17.757 L6.576,19.891 L4.804,17.839 C4.516,17.505 4.528,16.994 4.832,16.676 L12.193,8.962 C12.369,8.777 12.465,8.522 12.457,8.260 C12.449,7.997 12.338,7.749 12.151,7.577 L8.683,4.387 C10.678,2.769 13.117,1.889 15.652,1.889 C21.936,1.889 27.058,7.270 27.132,13.916 L21.214,33.320 C21.125,33.612 21.175,33.931 21.349,34.176 L23.880,37.766 L5.227,37.766 C4.604,35.238 5.250,32.533 6.958,30.627 ZM27.218,42.111 L1.782,42.111 L1.782,39.655 L27.218,39.655 L27.218,42.111 Z"/>
</svg>