<svg 
 xmlns="http://www.w3.org/2000/svg"
 xmlns:xlink="http://www.w3.org/1999/xlink"
 width="73px" height="61px" viewBox="0 0 73 61">
<path fill-rule="evenodd"  fill="rgb(82, 85, 88)"
 d="M70.247,50.624 L66.214,50.624 C65.622,50.624 65.143,50.140 65.143,49.543 C65.143,48.946 65.622,48.461 66.214,48.461 L70.247,48.461 C70.596,48.461 70.857,48.247 70.857,48.056 L70.857,45.164 C70.857,43.540 69.872,41.618 67.989,41.051 L62.157,40.167 C62.132,40.164 62.107,40.158 62.083,40.152 C62.072,40.150 62.061,40.148 62.050,40.146 C62.010,40.135 61.972,40.123 61.934,40.108 C61.925,40.105 61.916,40.100 61.906,40.097 C61.875,40.084 61.845,40.069 61.816,40.053 C61.811,40.051 61.805,40.049 61.801,40.046 C61.791,40.041 61.782,40.035 61.773,40.030 C61.765,40.025 61.757,40.020 61.749,40.016 C60.451,39.268 60.002,37.914 59.847,36.591 C58.425,37.444 56.792,37.930 55.055,37.930 C53.598,37.930 52.193,37.595 50.880,36.936 C50.350,36.670 50.134,36.021 50.398,35.485 C50.661,34.951 51.304,34.733 51.834,34.999 C52.848,35.508 53.932,35.766 55.055,35.766 C59.357,35.766 62.857,31.898 62.857,27.143 L62.857,22.529 C62.857,21.479 62.011,20.625 60.971,20.625 L58.214,20.625 C57.622,20.625 57.143,20.140 57.143,19.543 C57.143,18.945 57.622,18.461 58.214,18.461 L60.971,18.461 C63.192,18.461 65.000,20.286 65.000,22.529 L65.000,23.096 C65.093,22.715 65.143,22.320 65.143,21.917 L65.143,16.081 C65.143,14.133 63.572,12.548 61.643,12.548 L58.214,12.548 C57.622,12.548 57.143,12.063 57.143,11.466 C57.143,10.868 57.622,10.384 58.214,10.384 L61.643,10.384 C64.754,10.384 67.285,12.939 67.285,16.081 L67.285,21.916 C67.285,23.921 66.457,25.798 65.000,27.135 L65.000,27.143 C65.000,30.211 63.811,32.981 61.910,34.947 C61.921,36.322 62.026,37.556 62.699,38.062 L68.377,38.922 C68.421,38.929 68.464,38.938 68.507,38.950 C71.457,39.785 73.000,42.708 73.000,45.164 L73.000,48.056 C73.000,49.472 71.765,50.624 70.247,50.624 ZM51.286,25.312 C51.286,29.874 49.530,33.999 46.714,36.929 C46.717,39.458 46.853,41.794 48.295,42.735 L57.210,44.086 C57.254,44.092 57.297,44.102 57.340,44.114 C59.301,44.669 60.969,45.896 62.164,47.665 C63.256,49.278 63.857,51.226 63.857,53.150 L63.857,57.620 C63.857,59.483 62.210,60.999 60.186,60.999 L12.813,60.999 C10.789,60.999 9.143,59.483 9.143,57.620 L9.143,53.150 C9.143,51.226 9.744,49.278 10.835,47.664 C12.031,45.896 13.699,44.669 15.660,44.114 C15.703,44.102 15.746,44.092 15.790,44.086 L24.705,42.735 C26.147,41.793 26.283,39.458 26.285,36.929 C23.470,33.999 21.714,29.874 21.714,25.312 L21.714,24.943 C19.529,22.983 18.286,20.204 18.286,17.235 L18.286,11.466 C18.286,7.379 21.335,3.997 25.258,3.519 C25.719,1.505 27.510,-0.000 29.643,-0.000 L44.500,-0.000 C50.132,-0.000 54.714,4.626 54.714,10.312 L54.714,17.235 C54.714,20.204 53.471,22.983 51.286,24.943 L51.286,25.312 ZM24.260,44.990 L16.176,46.215 C12.965,47.158 11.286,50.409 11.286,53.150 L11.286,57.620 C11.286,58.279 11.985,58.836 12.813,58.836 L60.187,58.836 C61.015,58.836 61.714,58.279 61.714,57.620 L61.714,53.150 C61.714,50.409 60.035,47.158 56.823,46.215 L48.740,44.990 C47.541,50.247 42.475,54.086 36.500,54.086 C30.525,54.086 25.459,50.247 24.260,44.990 ZM46.705,44.239 C45.115,42.919 44.710,40.728 44.607,38.754 C42.278,40.422 39.491,41.394 36.500,41.394 C33.509,41.394 30.722,40.422 28.393,38.754 C28.290,40.728 27.885,42.919 26.294,44.239 C27.154,48.659 31.428,51.923 36.500,51.923 C41.572,51.923 45.845,48.659 46.705,44.239 ZM52.571,17.235 L52.571,10.312 C52.571,5.818 48.950,2.162 44.500,2.162 L29.643,2.162 C28.343,2.162 27.286,3.230 27.286,4.543 C27.286,5.140 26.806,5.624 26.214,5.624 C23.024,5.624 20.428,8.245 20.428,11.466 L20.428,17.235 C20.428,18.828 20.883,20.350 21.714,21.649 L21.714,18.389 C21.714,15.247 24.246,12.692 27.357,12.692 L46.786,12.692 C47.377,12.692 47.857,13.176 47.857,13.773 C47.857,14.371 47.377,14.855 46.786,14.855 L27.357,14.855 C25.427,14.855 23.857,16.440 23.857,18.389 L23.857,24.349 C23.863,24.414 23.863,24.480 23.857,24.547 L23.857,25.312 C23.857,32.986 29.529,39.230 36.500,39.230 C43.471,39.230 49.143,32.986 49.143,25.312 L49.143,17.235 C49.143,16.638 49.622,16.153 50.214,16.153 C50.806,16.153 51.286,16.638 51.286,17.235 L51.286,21.649 C52.117,20.350 52.571,18.828 52.571,17.235 ZM17.945,35.766 C19.068,35.766 20.152,35.508 21.166,34.999 C21.696,34.733 22.339,34.951 22.603,35.485 C22.866,36.021 22.650,36.670 22.120,36.936 C20.807,37.596 19.402,37.930 17.945,37.930 C16.208,37.930 14.575,37.444 13.153,36.591 C12.998,37.914 12.549,39.268 11.251,40.016 C11.243,40.021 11.235,40.025 11.227,40.030 C11.217,40.035 11.209,40.041 11.199,40.047 C11.194,40.049 11.189,40.051 11.184,40.054 C11.155,40.069 11.124,40.084 11.093,40.097 C11.084,40.100 11.075,40.105 11.066,40.108 C11.028,40.123 10.990,40.136 10.950,40.146 C10.939,40.149 10.928,40.150 10.917,40.152 C10.893,40.158 10.868,40.164 10.843,40.168 L5.011,41.051 C3.127,41.618 2.143,43.540 2.143,45.164 L2.143,48.056 C2.143,48.248 2.404,48.461 2.753,48.461 L6.786,48.461 C7.377,48.461 7.857,48.946 7.857,49.543 C7.857,50.141 7.377,50.624 6.786,50.624 L2.753,50.624 C1.235,50.624 -0.000,49.472 -0.000,48.056 L-0.000,45.164 C-0.000,42.708 1.543,39.785 4.493,38.950 C4.535,38.938 4.579,38.929 4.623,38.922 L10.300,38.062 C10.974,37.556 11.078,36.323 11.090,34.947 C9.188,32.981 8.000,30.211 8.000,27.143 L8.000,27.135 C6.542,25.798 5.714,23.921 5.714,21.917 L5.714,18.185 C5.714,15.434 7.703,13.143 10.304,12.701 C10.727,11.359 11.973,10.384 13.440,10.384 L14.786,10.384 C15.377,10.384 15.857,10.868 15.857,11.466 C15.857,12.064 15.377,12.548 14.786,12.548 L13.440,12.548 C12.808,12.548 12.294,13.067 12.294,13.705 C12.294,14.303 11.814,14.787 11.222,14.787 C9.367,14.787 7.857,16.311 7.857,18.185 L7.857,21.917 C7.857,22.320 7.907,22.715 8.000,23.096 L8.000,22.529 C8.000,20.286 9.807,18.461 12.029,18.461 L14.786,18.461 C15.377,18.461 15.857,18.945 15.857,19.543 C15.857,20.141 15.377,20.625 14.786,20.625 L12.029,20.625 C10.989,20.625 10.143,21.479 10.143,22.529 L10.143,27.143 C10.143,31.898 13.643,35.766 17.945,35.766 Z"/>
</svg>