<svg 
 xmlns="http://www.w3.org/2000/svg"
 xmlns:xlink="http://www.w3.org/1999/xlink"
 width="51px" height="65px" viewBox="0 0 51 65">
<path fill-rule="evenodd"  fill="rgb(82, 85, 88)"
 d="M48.846,10.108 L42.106,10.108 L42.106,6.425 C43.397,5.984 44.330,4.750 44.330,3.299 C44.330,1.480 42.865,-0.000 41.064,-0.000 L9.936,-0.000 C8.135,-0.000 6.670,1.480 6.670,3.299 C6.670,4.750 7.603,5.984 8.894,6.425 L8.894,10.108 L2.154,10.108 C0.966,10.108 -0.000,11.084 -0.000,12.284 L-0.000,16.776 C-0.000,23.550 5.455,29.060 12.159,29.060 C12.173,29.060 12.187,29.059 12.200,29.058 C14.567,32.251 18.033,34.567 22.026,35.428 C21.460,36.174 21.123,37.105 21.123,38.115 C21.123,39.586 21.837,40.890 22.933,41.694 C22.496,42.256 22.234,42.963 22.234,43.731 L22.234,52.716 C22.234,54.612 20.707,56.155 18.830,56.155 L17.718,56.155 L14.383,56.155 C13.195,56.155 12.229,57.131 12.229,58.331 L12.229,62.824 C12.229,64.024 13.195,65.000 14.383,65.000 L36.617,65.000 C37.805,65.000 38.771,64.024 38.771,62.824 L38.771,58.331 C38.771,57.131 37.805,56.155 36.617,56.155 L33.282,56.155 L32.170,56.155 C30.293,56.155 28.766,54.612 28.766,52.716 L28.766,43.731 C28.766,42.963 28.504,42.256 28.066,41.694 C29.163,40.890 29.877,39.586 29.877,38.115 C29.877,37.105 29.540,36.174 28.974,35.428 C32.966,34.567 36.432,32.251 38.799,29.058 C38.813,29.059 38.827,29.060 38.841,29.060 C45.545,29.060 51.000,23.550 51.000,16.776 L51.000,12.284 C51.000,11.084 50.034,10.108 48.846,10.108 ZM9.936,2.105 L41.064,2.105 C41.715,2.105 42.245,2.641 42.245,3.299 C42.245,3.957 41.715,4.492 41.064,4.492 L9.936,4.492 C9.285,4.492 8.755,3.957 8.755,3.299 C8.755,2.641 9.285,2.105 9.936,2.105 ZM2.084,16.776 L2.084,12.284 C2.084,12.245 2.116,12.213 2.154,12.213 L8.894,12.213 L8.894,19.022 C8.894,21.853 9.592,24.521 10.822,26.862 C5.897,26.199 2.084,21.930 2.084,16.776 ZM36.617,58.261 C36.655,58.261 36.687,58.292 36.687,58.331 L36.687,62.824 C36.687,62.862 36.655,62.894 36.617,62.894 L14.383,62.894 C14.345,62.894 14.313,62.862 14.313,62.824 L14.313,58.331 C14.313,58.292 14.345,58.261 14.383,58.261 L36.617,58.261 ZM26.681,43.731 L26.681,52.716 C26.681,54.015 27.127,55.209 27.869,56.155 L23.131,56.155 C23.874,55.209 24.319,54.015 24.319,52.716 L24.319,43.731 C24.319,43.073 24.849,42.538 25.500,42.538 C26.151,42.538 26.681,43.073 26.681,43.731 ZM27.793,38.115 C27.793,39.393 26.764,40.432 25.500,40.432 C24.236,40.432 23.207,39.393 23.207,38.115 C23.207,36.838 24.236,35.799 25.500,35.799 C26.764,35.799 27.793,36.838 27.793,38.115 ZM25.500,33.693 C17.493,33.693 10.978,27.112 10.978,19.022 L10.978,6.598 L40.022,6.598 L40.022,19.022 C40.022,27.112 33.507,33.693 25.500,33.693 ZM48.915,16.776 C48.915,21.930 45.103,26.199 40.178,26.862 C41.408,24.521 42.106,21.853 42.106,19.022 L42.106,12.213 L48.846,12.213 C48.884,12.213 48.915,12.245 48.915,12.284 L48.915,16.776 Z"/>
</svg>