<svg 
 xmlns="http://www.w3.org/2000/svg"
 xmlns:xlink="http://www.w3.org/1999/xlink"
 width="35px" height="42px" viewBox="0 0 35 42">
<path fill-rule="evenodd"  fill="rgb(255, 255, 255)"
 d="M32.726,42.000 L29.784,42.000 C28.530,42.000 27.510,40.956 27.510,39.672 L27.510,26.873 C27.510,25.589 28.530,24.545 29.784,24.545 L32.726,24.545 C33.980,24.545 35.000,25.589 35.000,26.873 L35.000,39.672 C35.000,40.956 33.980,42.000 32.726,42.000 ZM32.907,26.873 C32.907,26.771 32.826,26.688 32.726,26.688 L29.784,26.688 C29.684,26.688 29.603,26.771 29.603,26.873 L29.603,39.672 C29.603,39.774 29.684,39.857 29.784,39.857 L32.726,39.857 C32.826,39.857 32.907,39.774 32.907,39.672 L32.907,26.873 ZM17.108,26.986 C9.840,26.986 3.926,20.933 3.926,13.493 C3.926,6.053 9.840,-0.000 17.108,-0.000 C24.376,-0.000 30.289,6.053 30.289,13.493 C30.289,20.933 24.376,26.986 17.108,26.986 ZM17.108,2.142 C10.994,2.142 6.020,7.234 6.020,13.493 C6.020,19.751 10.994,24.843 17.108,24.843 C23.222,24.843 28.196,19.751 28.196,13.493 C28.196,7.234 23.222,2.142 17.108,2.142 ZM21.527,16.945 C21.527,19.069 20.087,20.856 18.155,21.338 L18.155,22.491 C18.155,23.082 17.686,23.562 17.108,23.562 C16.530,23.562 16.062,23.082 16.062,22.491 L16.062,21.338 C14.129,20.856 12.689,19.069 12.689,16.945 C12.689,16.353 13.158,15.873 13.736,15.873 C14.314,15.873 14.782,16.353 14.782,16.945 C14.782,17.872 15.304,18.675 16.062,19.068 L16.062,14.435 C14.129,13.952 12.689,12.166 12.689,10.041 C12.689,7.916 14.129,6.130 16.062,5.647 L16.062,4.495 C16.062,3.903 16.530,3.423 17.108,3.423 C17.686,3.423 18.155,3.903 18.155,4.495 L18.155,5.647 C20.087,6.130 21.527,7.916 21.527,10.041 C21.527,10.632 21.058,11.112 20.480,11.112 C19.902,11.112 19.434,10.632 19.434,10.041 C19.434,9.114 18.912,8.311 18.155,7.918 L18.155,12.551 C20.087,13.033 21.527,14.820 21.527,16.945 ZM18.155,19.068 C18.912,18.675 19.434,17.872 19.434,16.945 C19.434,16.018 18.912,15.215 18.155,14.822 L18.155,19.068 ZM16.062,7.918 C15.304,8.311 14.782,9.114 14.782,10.041 C14.782,10.968 15.304,11.771 16.062,12.164 L16.062,7.918 ZM7.490,26.270 L7.490,39.672 C7.490,40.956 6.469,42.000 5.216,42.000 L2.274,42.000 C1.020,42.000 -0.000,40.955 -0.000,39.672 L-0.000,26.270 C-0.000,24.986 1.020,23.942 2.274,23.942 L5.216,23.942 C6.469,23.942 7.490,24.986 7.490,26.270 ZM2.093,26.270 L2.093,39.672 C2.093,39.774 2.174,39.857 2.274,39.857 L5.216,39.857 C5.316,39.857 5.397,39.774 5.397,39.672 L5.397,26.270 C5.397,26.167 5.316,26.084 5.216,26.084 L2.274,26.084 C2.174,26.084 2.093,26.167 2.093,26.270 ZM11.356,28.706 L14.298,28.706 C15.552,28.706 16.572,29.750 16.572,31.034 L16.572,39.672 C16.572,40.956 15.552,42.000 14.298,42.000 L11.356,42.000 C10.102,42.000 9.082,40.955 9.082,39.672 L9.082,31.034 C9.082,29.750 10.102,28.706 11.356,28.706 ZM11.175,39.672 C11.175,39.774 11.256,39.857 11.356,39.857 L14.298,39.857 C14.398,39.857 14.479,39.774 14.479,39.672 L14.479,31.034 C14.479,30.932 14.398,30.848 14.298,30.848 L11.356,30.848 C11.256,30.848 11.175,30.932 11.175,31.034 L11.175,39.672 ZM20.439,28.103 L23.381,28.103 C24.634,28.103 25.654,29.147 25.654,30.430 L25.654,39.672 C25.654,40.956 24.634,42.000 23.381,42.000 L20.439,42.000 C19.185,42.000 18.165,40.955 18.165,39.672 L18.165,30.430 C18.165,29.147 19.185,28.103 20.439,28.103 ZM20.258,39.672 C20.258,39.774 20.339,39.857 20.439,39.857 L23.381,39.857 C23.480,39.857 23.561,39.774 23.561,39.672 L23.561,30.430 C23.561,30.328 23.480,30.245 23.381,30.245 L20.439,30.245 C20.339,30.245 20.258,30.328 20.258,30.430 L20.258,39.672 Z"/>
</svg>