<svg 
 xmlns="http://www.w3.org/2000/svg"
 xmlns:xlink="http://www.w3.org/1999/xlink"
 width="32px" height="42px" viewBox="0 0 32 42">
<path fill-rule="evenodd"  fill="rgb(195, 195, 195)"
 d="M31.434,4.244 L28.031,6.439 L28.031,12.421 L29.539,18.802 C29.696,19.467 29.295,20.136 28.643,20.297 C28.548,20.320 28.452,20.331 28.358,20.331 C27.810,20.331 27.313,19.950 27.179,19.383 L25.910,14.013 L25.014,14.013 L23.893,19.352 C23.771,19.933 23.267,20.331 22.707,20.331 C22.623,20.331 22.537,20.322 22.451,20.303 C21.796,20.160 21.378,19.502 21.519,18.833 L22.862,12.436 L22.862,6.439 L19.459,4.244 C18.892,3.879 18.723,3.114 19.081,2.536 C19.440,1.958 20.190,1.785 20.756,2.151 L24.427,4.518 L26.466,4.518 L30.138,2.151 C30.704,1.785 31.454,1.958 31.812,2.536 C32.170,3.114 32.001,3.879 31.434,4.244 ZM25.440,3.786 C24.415,3.786 23.584,2.938 23.584,1.893 C23.584,0.847 24.415,-0.000 25.440,-0.000 C26.465,-0.000 27.295,0.847 27.295,1.893 C27.295,2.938 26.465,3.786 25.440,3.786 ZM19.224,39.309 C19.224,40.793 18.041,42.000 16.586,42.000 L13.173,42.000 C11.719,42.000 10.536,40.792 10.536,39.309 L10.536,29.244 C10.536,27.760 11.719,26.553 13.173,26.553 L16.586,26.553 C18.041,26.553 19.224,27.760 19.224,29.244 L19.224,39.309 ZM16.796,29.243 C16.796,29.126 16.702,29.030 16.586,29.030 L13.173,29.030 C13.058,29.030 12.964,29.126 12.964,29.243 L12.964,39.308 C12.964,39.427 13.058,39.523 13.173,39.523 L16.586,39.523 C16.702,39.523 16.796,39.427 16.796,39.308 L16.796,29.243 ZM6.051,42.000 L2.638,42.000 C1.183,42.000 -0.000,40.792 -0.000,39.309 L-0.000,33.657 C-0.000,32.173 1.183,30.966 2.638,30.966 L6.051,30.966 C7.505,30.966 8.688,32.173 8.688,33.657 L8.688,39.309 C8.688,40.793 7.505,42.000 6.051,42.000 ZM6.260,39.308 L6.260,33.657 C6.260,33.539 6.166,33.443 6.051,33.443 L2.638,33.443 C2.522,33.443 2.428,33.539 2.428,33.657 L2.428,39.308 C2.428,39.427 2.522,39.523 2.638,39.523 L6.051,39.523 C6.166,39.523 6.260,39.427 6.260,39.308 L6.260,39.308 ZM24.014,21.821 L27.427,21.821 C28.882,21.821 30.065,23.028 30.065,24.512 L30.065,39.309 C30.065,40.793 28.882,42.000 27.427,42.000 L24.014,42.000 C22.560,42.000 21.377,40.792 21.377,39.309 L21.377,24.512 C21.377,23.028 22.560,21.821 24.014,21.821 ZM23.805,39.308 C23.805,39.427 23.899,39.523 24.014,39.523 L27.427,39.523 C27.543,39.523 27.637,39.427 27.637,39.308 L27.637,24.512 C27.637,24.394 27.543,24.298 27.427,24.298 L24.014,24.298 C23.899,24.298 23.805,24.394 23.805,24.512 L23.805,39.308 Z"/>
</svg>