<svg 
 xmlns="http://www.w3.org/2000/svg"
 xmlns:xlink="http://www.w3.org/1999/xlink"
 width="49px" height="42px" viewBox="0 0 49 42">
<path fill-rule="evenodd"  fill="rgb(195, 195, 195)"
 d="M47.417,15.500 L43.576,19.376 L38.051,24.950 L39.561,26.473 C40.873,27.797 40.873,29.949 39.561,31.273 C38.941,31.898 38.137,32.225 37.323,32.258 C37.289,33.080 36.966,33.891 36.346,34.517 C35.726,35.143 34.921,35.469 34.107,35.503 C34.074,36.324 33.751,37.136 33.130,37.761 C32.528,38.368 31.738,38.713 30.893,38.749 C30.858,39.601 30.516,40.399 29.915,41.006 C29.280,41.647 28.435,42.000 27.537,42.000 C26.638,42.000 25.794,41.647 25.158,41.006 L21.056,36.866 L19.344,38.593 C18.765,39.177 18.005,39.469 17.245,39.469 C16.485,39.469 15.724,39.177 15.146,38.593 L14.587,38.030 C14.097,37.535 13.800,36.898 13.732,36.212 C13.052,36.144 12.420,35.843 11.930,35.349 L11.371,34.785 C10.881,34.290 10.583,33.653 10.516,32.965 C9.858,32.899 9.218,32.613 8.715,32.105 L8.156,31.541 C7.666,31.047 7.368,30.409 7.301,29.723 C6.620,29.655 5.989,29.355 5.499,28.860 L4.940,28.297 C4.380,27.731 4.071,26.979 4.071,26.179 C4.071,25.378 4.380,24.627 4.940,24.061 L6.652,22.333 L3.546,19.200 L0.692,16.320 C0.267,15.890 0.267,15.195 0.692,14.765 C1.118,14.336 1.808,14.336 2.233,14.765 L5.087,17.645 L26.699,39.451 C27.161,39.917 27.912,39.917 28.374,39.451 C28.836,38.985 28.836,38.227 28.374,37.761 L22.266,31.598 C21.840,31.169 21.840,30.473 22.266,30.044 C22.691,29.614 23.381,29.614 23.807,30.044 L29.915,36.207 C30.138,36.432 30.436,36.557 30.752,36.557 C31.068,36.557 31.366,36.432 31.589,36.207 C32.051,35.741 32.051,34.982 31.589,34.517 L25.481,28.354 C25.056,27.925 25.056,27.229 25.481,26.799 C25.907,26.370 26.597,26.370 27.022,26.799 L33.130,32.963 C33.592,33.428 34.343,33.428 34.805,32.963 C35.029,32.736 35.152,32.437 35.152,32.118 C35.152,31.798 35.029,31.498 34.805,31.273 L28.697,25.109 C28.271,24.680 28.271,23.984 28.697,23.555 C29.122,23.126 29.812,23.126 30.237,23.555 L36.346,29.718 C36.807,30.184 37.559,30.184 38.020,29.718 C38.482,29.252 38.482,28.494 38.020,28.028 L35.740,25.727 L23.158,13.032 L18.340,12.608 L18.038,14.124 C17.490,16.863 14.837,18.642 12.122,18.090 C9.408,17.538 7.644,14.861 8.192,12.122 L8.687,9.641 C9.662,4.766 14.378,1.598 19.209,2.565 C19.210,2.565 19.210,2.565 19.211,2.566 L29.955,4.506 C30.113,4.060 30.365,3.641 30.718,3.284 L33.014,0.968 C33.633,0.344 34.455,-0.000 35.330,-0.000 C36.205,-0.000 37.027,0.344 37.646,0.968 L47.417,10.827 C48.694,12.115 48.694,14.212 47.417,15.500 ZM8.086,23.996 L6.481,25.616 C6.173,25.926 6.173,26.431 6.481,26.742 L7.040,27.306 C7.347,27.616 7.848,27.616 8.156,27.306 L9.761,25.686 L8.086,23.996 ZM11.302,27.240 L9.697,28.860 C9.389,29.170 9.389,29.675 9.697,29.986 L10.256,30.550 C10.563,30.861 11.064,30.860 11.372,30.550 L12.977,28.930 L11.302,27.240 ZM14.517,30.485 L12.912,32.105 C12.763,32.255 12.681,32.455 12.681,32.668 C12.681,32.880 12.763,33.080 12.912,33.231 L13.471,33.795 C13.778,34.105 14.279,34.105 14.587,33.795 L16.192,32.174 L14.517,30.485 ZM17.733,33.729 L16.128,35.349 C15.820,35.660 15.820,36.165 16.128,36.475 L16.686,37.039 C16.994,37.350 17.495,37.350 17.802,37.039 L19.408,35.419 L17.733,33.729 ZM29.414,6.642 L18.827,4.730 C18.819,4.728 18.812,4.727 18.804,4.726 C15.140,3.980 11.562,6.381 10.823,10.076 L10.328,12.556 C10.178,13.307 10.327,14.072 10.747,14.710 C11.167,15.348 11.809,15.783 12.553,15.935 C14.090,16.247 15.592,15.240 15.901,13.690 L16.397,11.210 C16.500,10.693 16.950,10.327 17.464,10.327 C17.496,10.327 17.528,10.329 17.560,10.332 L23.743,10.877 C23.999,10.900 24.237,11.012 24.419,11.195 L36.510,23.395 L41.264,18.599 L30.718,7.958 L29.414,6.642 ZM45.876,12.381 L36.105,2.522 C35.898,2.313 35.622,2.198 35.330,2.198 C35.037,2.198 34.762,2.313 34.555,2.522 L32.259,4.839 C32.052,5.048 31.938,5.325 31.938,5.621 C31.938,5.917 32.052,6.194 32.259,6.403 L42.805,17.044 L45.876,13.945 C46.083,13.736 46.197,13.459 46.197,13.163 C46.197,12.868 46.083,12.590 45.876,12.381 ZM43.239,14.699 C42.637,14.699 42.149,14.207 42.149,13.599 C42.149,12.992 42.637,12.500 43.239,12.500 C43.841,12.500 44.328,12.992 44.328,13.599 C44.328,14.207 43.841,14.699 43.239,14.699 Z"/>
</svg>