<svg 
 xmlns="http://www.w3.org/2000/svg"
 xmlns:xlink="http://www.w3.org/1999/xlink"
 width="49px" height="42px" viewBox="0 0 49 42">
<path fill-rule="evenodd"  fill="rgb(185, 185, 185)"
 d="M38.465,29.781 C36.702,36.796 30.410,42.000 22.938,42.000 C14.105,42.000 6.919,34.726 6.919,25.786 C6.919,24.738 7.019,23.715 7.207,22.722 C2.981,20.945 -0.000,16.724 -0.000,11.810 C-0.000,5.298 5.234,-0.000 11.669,-0.000 C17.347,-0.000 22.089,4.128 23.125,9.574 C24.206,9.587 25.261,9.708 26.281,9.929 C28.554,6.704 32.276,4.595 36.479,4.595 C43.383,4.595 49.000,10.280 49.000,17.269 C49.000,23.572 44.428,28.815 38.465,29.781 ZM10.989,1.834 C6.029,2.172 2.051,6.273 1.802,11.297 C1.590,15.579 4.056,19.314 7.650,20.940 C8.278,18.916 9.288,17.061 10.595,15.462 L10.770,15.253 C10.926,15.068 11.087,14.887 11.251,14.709 L9.590,14.709 C9.280,14.709 9.028,14.455 9.028,14.141 C9.028,13.827 9.280,13.573 9.590,13.573 L12.414,13.573 C12.625,13.386 12.841,13.204 13.061,13.029 L9.590,13.029 C9.280,13.029 9.028,12.775 9.028,12.460 L9.028,12.440 C9.028,12.126 9.280,11.871 9.590,11.871 L10.265,11.871 L8.314,7.911 C7.958,7.188 8.477,6.339 9.275,6.339 C9.682,6.339 10.054,6.572 10.236,6.940 L11.668,9.849 L13.101,6.940 C13.283,6.572 13.655,6.339 14.062,6.339 C14.860,6.339 15.379,7.188 15.023,7.911 L13.072,11.871 L14.052,11.871 C14.194,11.871 14.309,11.988 14.309,12.131 C16.371,10.791 18.754,9.917 21.314,9.655 C20.291,4.960 16.001,1.493 10.989,1.834 ZM22.938,11.384 C15.092,11.384 8.709,17.845 8.709,25.786 C8.709,33.727 15.092,40.189 22.938,40.189 C30.785,40.189 37.168,33.727 37.168,25.786 C37.168,17.845 30.784,11.384 22.938,11.384 ZM37.036,6.421 C33.445,6.236 30.211,7.850 28.134,10.448 C29.805,11.030 31.352,11.884 32.723,12.958 C33.344,11.398 34.854,10.294 36.615,10.294 C38.432,10.294 39.982,11.468 40.565,13.106 C40.814,13.806 40.283,14.542 39.548,14.542 C39.104,14.542 38.695,14.269 38.546,13.845 C38.263,13.043 37.504,12.467 36.616,12.467 C35.452,12.467 34.512,13.454 34.569,14.644 C34.570,14.647 34.571,14.649 34.572,14.651 C35.118,15.236 35.621,15.861 36.078,16.522 L37.862,16.522 C38.220,16.522 38.510,16.816 38.510,17.178 C38.510,17.541 38.220,17.834 37.862,17.834 L36.894,17.834 C37.510,18.937 38.003,20.118 38.351,21.361 C38.428,21.391 38.504,21.420 38.577,21.443 C38.999,21.579 39.291,21.579 39.713,21.443 L39.720,21.441 C40.174,21.294 40.665,21.514 40.862,21.954 L40.984,22.226 C41.207,22.725 40.959,23.312 40.447,23.487 C40.420,23.496 40.393,23.505 40.366,23.514 C39.941,23.651 39.541,23.718 39.145,23.718 C39.039,23.718 38.932,23.713 38.826,23.703 C38.912,24.385 38.958,25.080 38.957,25.786 C38.957,26.491 38.913,27.184 38.826,27.866 C43.738,26.751 47.390,22.222 47.204,16.878 C47.009,11.286 42.557,6.705 37.036,6.421 ZM26.448,23.126 C25.846,23.126 25.359,22.633 25.359,22.024 C25.359,21.070 24.816,20.244 24.027,19.839 L24.027,24.607 C26.039,25.103 27.537,26.941 27.537,29.128 C27.537,31.314 26.039,33.153 24.027,33.649 L24.027,34.242 C24.027,34.851 23.540,35.344 22.938,35.344 C22.337,35.344 21.849,34.850 21.849,34.242 L21.849,33.649 C19.838,33.153 18.340,31.314 18.340,29.128 C18.340,28.519 18.828,28.025 19.429,28.025 C20.030,28.025 20.518,28.519 20.518,29.128 C20.518,30.082 21.061,30.908 21.849,31.313 L21.849,26.545 C19.838,26.049 18.340,24.210 18.340,22.024 C18.340,19.837 19.838,17.999 21.849,17.502 L21.849,16.910 C21.849,16.301 22.337,15.808 22.938,15.808 C23.540,15.808 24.028,16.301 24.028,16.910 L24.028,17.502 C26.039,17.999 27.537,19.837 27.537,22.024 C27.537,22.633 27.049,23.126 26.448,23.126 ZM24.027,31.313 C24.816,30.908 25.359,30.082 25.359,29.128 C25.359,28.174 24.816,27.347 24.027,26.943 L24.027,31.313 ZM21.849,19.839 C21.061,20.244 20.518,21.070 20.518,22.024 C20.518,22.978 21.061,23.804 21.849,24.208 L21.849,19.839 Z"/>
</svg>