<svg 
 xmlns="http://www.w3.org/2000/svg"
 xmlns:xlink="http://www.w3.org/1999/xlink"
 width="38px" height="42px" viewBox="0 0 38 42">
<path fill-rule="evenodd"  fill="rgb(255, 255, 255)"
 d="M36.920,42.000 L24.767,42.000 C24.170,42.000 23.686,41.510 23.686,40.906 L23.686,38.207 C23.686,36.226 25.277,34.614 27.233,34.614 L34.453,34.614 C36.409,34.614 38.000,36.226 38.000,38.207 L38.000,40.906 C38.000,41.510 37.516,42.000 36.920,42.000 ZM29.763,36.803 L27.233,36.803 C26.469,36.803 25.847,37.432 25.847,38.207 L25.847,39.812 L29.763,39.812 L29.763,36.803 ZM35.839,38.207 C35.839,37.432 35.217,36.803 34.453,36.803 L31.923,36.803 L31.923,39.812 L35.839,39.812 L35.839,38.207 ZM30.843,33.682 C28.237,33.682 26.117,31.535 26.117,28.895 C26.117,26.255 28.237,24.108 30.843,24.108 C33.449,24.108 35.569,26.255 35.569,28.895 C35.569,31.535 33.449,33.682 30.843,33.682 ZM30.843,26.296 C29.428,26.296 28.277,27.462 28.277,28.895 C28.277,30.328 29.428,31.493 30.843,31.493 C32.258,31.493 33.409,30.328 33.409,28.895 C33.409,27.462 32.258,26.296 30.843,26.296 ZM25.076,17.892 L12.923,17.892 C12.327,17.892 11.843,17.402 11.843,16.797 L11.843,14.099 C11.843,12.118 13.434,10.506 15.390,10.506 L22.610,10.506 C24.566,10.506 26.157,12.118 26.157,14.099 L26.157,16.797 C26.157,17.402 25.673,17.892 25.076,17.892 ZM17.920,12.695 L15.390,12.695 C14.626,12.695 14.004,13.324 14.004,14.099 L14.004,15.703 L17.920,15.703 L17.920,12.695 ZM23.996,14.099 C23.996,13.324 23.374,12.695 22.610,12.695 L20.080,12.695 L20.080,15.703 L23.996,15.703 L23.996,14.099 ZM19.000,9.574 C16.394,9.574 14.274,7.426 14.274,4.787 C14.274,2.147 16.394,-0.000 19.000,-0.000 C21.606,-0.000 23.726,2.147 23.726,4.787 C23.726,7.426 21.606,9.574 19.000,9.574 ZM19.000,2.188 C17.585,2.188 16.434,3.354 16.434,4.787 C16.434,6.219 17.585,7.385 19.000,7.385 C20.415,7.385 21.565,6.219 21.565,4.787 C21.565,3.354 20.415,2.188 19.000,2.188 ZM7.157,33.682 C4.551,33.682 2.431,31.535 2.431,28.895 C2.431,26.255 4.551,24.108 7.157,24.108 C9.763,24.108 11.883,26.255 11.883,28.895 C11.883,31.535 9.763,33.682 7.157,33.682 ZM7.157,26.296 C5.742,26.296 4.591,27.462 4.591,28.895 C4.591,30.328 5.742,31.493 7.157,31.493 C8.571,31.493 9.722,30.328 9.722,28.895 C9.722,27.462 8.571,26.296 7.157,26.296 ZM10.767,34.614 C12.723,34.614 14.314,36.226 14.314,38.207 L14.314,40.906 C14.314,41.510 13.830,42.000 13.233,42.000 L1.080,42.000 C0.484,42.000 -0.000,41.510 -0.000,40.906 L-0.000,38.207 C-0.000,36.226 1.591,34.614 3.547,34.614 L10.767,34.614 ZM8.237,39.812 L12.153,39.812 L12.153,38.207 C12.153,37.432 11.531,36.803 10.767,36.803 L8.237,36.803 L8.237,39.812 ZM2.161,38.207 L2.161,39.812 L6.076,39.812 L6.076,36.803 L3.547,36.803 C2.782,36.803 2.161,37.432 2.161,38.207 ZM13.454,30.110 C13.096,29.626 13.194,28.940 13.671,28.578 L17.920,25.356 L17.920,20.947 C17.920,20.343 18.404,19.853 19.000,19.853 C19.597,19.853 20.080,20.343 20.080,20.947 L20.080,25.356 L24.329,28.578 C24.806,28.940 24.904,29.626 24.546,30.110 C24.334,30.397 24.009,30.548 23.681,30.548 C23.455,30.548 23.228,30.477 23.034,30.330 L19.000,27.271 L14.966,30.330 C14.488,30.692 13.811,30.594 13.454,30.110 Z"/>
</svg>