<svg 
 xmlns="http://www.w3.org/2000/svg"
 xmlns:xlink="http://www.w3.org/1999/xlink"
 width="27px" height="28px" viewBox="0 0 27px 28px">
<path fill-rule="evenodd"  fill="rgb(255, 160, 0)"
 d="M26.360,13.261 C26.315,13.267 26.275,13.273 26.229,13.273 C25.858,13.273 25.533,13.001 25.470,12.611 C25.019,9.858 23.764,7.346 21.835,5.348 C19.906,3.357 17.480,2.051 14.821,1.584 C14.399,1.507 14.119,1.099 14.187,0.662 C14.262,0.231 14.655,-0.065 15.072,0.012 C18.051,0.538 20.762,1.992 22.919,4.226 C25.076,6.460 26.480,9.266 26.988,12.351 C27.062,12.783 26.777,13.196 26.360,13.261 ZM14.861,5.089 C16.670,5.407 18.319,6.294 19.626,7.647 C20.933,9.000 21.789,10.708 22.097,12.582 C22.166,13.019 21.886,13.433 21.464,13.503 C21.418,13.509 21.378,13.515 21.332,13.515 C20.962,13.515 20.636,13.244 20.574,12.854 C20.317,11.305 19.615,9.899 18.530,8.776 C17.446,7.653 16.088,6.921 14.593,6.660 C14.170,6.590 13.896,6.170 13.971,5.738 C14.045,5.307 14.439,5.018 14.861,5.089 ZM9.747,10.354 C9.325,10.797 8.891,11.258 8.423,11.701 C8.772,12.499 9.251,13.285 9.964,14.219 C11.437,16.092 12.972,17.540 14.661,18.651 C14.827,18.757 15.021,18.858 15.226,18.964 C15.369,19.041 15.517,19.118 15.665,19.200 L17.469,17.339 C18.045,16.742 18.719,16.429 19.421,16.429 C20.128,16.429 20.796,16.748 21.350,17.345 L24.483,20.601 C25.059,21.192 25.362,21.895 25.362,22.628 C25.362,23.355 25.065,24.064 24.500,24.673 C24.254,24.938 24.003,25.193 23.758,25.435 C23.398,25.795 23.056,26.132 22.759,26.504 C22.754,26.517 22.742,26.523 22.736,26.534 C21.869,27.509 20.762,28.000 19.443,28.000 C19.329,28.000 19.204,27.994 19.084,27.988 C17.127,27.858 15.374,27.096 14.062,26.452 C10.626,24.732 7.619,22.291 5.119,19.200 C3.059,16.635 1.678,14.242 0.753,11.660 C0.377,10.608 -0.114,9.000 0.023,7.275 C0.114,6.205 0.531,5.283 1.261,4.527 L3.202,2.500 C3.207,2.494 3.207,2.494 3.213,2.488 C3.784,1.921 4.457,1.620 5.153,1.620 C5.850,1.620 6.512,1.921 7.065,2.488 C7.436,2.843 7.796,3.221 8.138,3.588 C8.309,3.776 8.492,3.966 8.669,4.149 L10.227,5.762 C11.425,7.003 11.425,8.610 10.227,9.852 C10.067,10.017 9.907,10.189 9.747,10.354 ZM9.143,6.891 L7.584,5.277 C7.402,5.083 7.219,4.894 7.042,4.704 C6.694,4.332 6.363,3.983 6.015,3.646 C6.009,3.640 6.004,3.635 5.998,3.629 C5.815,3.439 5.524,3.215 5.165,3.215 C4.874,3.215 4.577,3.363 4.297,3.635 L2.351,5.650 C1.878,6.140 1.621,6.714 1.564,7.405 C1.478,8.487 1.672,9.633 2.203,11.104 C3.065,13.515 4.366,15.761 6.312,18.190 C8.669,21.103 11.505,23.402 14.735,25.021 C15.917,25.606 17.492,26.292 19.187,26.404 C19.272,26.410 19.364,26.410 19.449,26.410 C20.340,26.410 21.019,26.109 21.595,25.470 C21.949,25.039 22.326,24.655 22.696,24.289 C22.942,24.040 23.170,23.816 23.393,23.567 C23.975,22.941 23.975,22.321 23.387,21.718 L20.242,18.462 C20.237,18.456 20.237,18.456 20.231,18.450 C20.054,18.249 19.763,18.019 19.409,18.019 C19.050,18.019 18.742,18.261 18.548,18.462 L16.596,20.483 C16.499,20.583 16.202,20.891 15.728,20.891 C15.540,20.891 15.357,20.843 15.163,20.743 C15.141,20.731 15.118,20.713 15.095,20.701 C14.929,20.595 14.735,20.495 14.530,20.388 C14.302,20.270 14.062,20.146 13.828,19.992 C11.996,18.793 10.335,17.227 8.760,15.218 L8.754,15.211 C7.887,14.071 7.316,13.114 6.911,12.097 C6.905,12.079 6.900,12.062 6.894,12.044 C6.791,11.707 6.700,11.211 7.191,10.702 C7.196,10.691 7.208,10.685 7.219,10.673 C7.716,10.212 8.172,9.739 8.652,9.231 C8.817,9.065 8.977,8.894 9.143,8.723 C9.747,8.096 9.747,7.517 9.143,6.891 Z"/>
</svg>