<svg 
 xmlns="http://www.w3.org/2000/svg"
 xmlns:xlink="http://www.w3.org/1999/xlink"
 width="59px" height="65px" viewBox="0 0 59 65">
<path fill-rule="evenodd"  fill="rgb(82, 85, 88)"
 d="M56.758,48.711 L45.692,55.389 C45.672,55.401 45.651,55.413 45.630,55.423 L45.233,55.628 C45.212,55.638 45.191,55.649 45.169,55.658 L37.355,59.027 C36.804,59.264 36.221,59.384 35.622,59.384 L19.065,59.384 C17.746,59.384 16.460,59.852 15.447,60.702 L10.611,64.756 C10.416,64.919 10.178,65.000 9.941,65.000 C9.672,65.000 9.404,64.896 9.200,64.691 C8.536,64.023 7.136,62.679 5.654,61.256 C3.111,58.813 1.415,57.178 1.021,56.718 C-0.468,54.977 -0.312,52.282 1.377,50.583 L10.182,41.727 C10.935,40.970 11.935,40.513 12.998,40.442 L29.184,39.356 L35.348,37.290 C36.484,36.907 37.745,37.013 38.805,37.580 C39.881,38.157 40.653,39.128 40.978,40.315 C41.598,42.576 40.273,44.954 37.961,45.736 L31.988,47.883 C31.936,47.902 31.894,47.939 31.870,47.989 C31.827,48.076 31.852,48.148 31.880,48.194 C31.908,48.239 31.962,48.293 32.058,48.293 L39.931,48.293 L41.431,47.647 L52.341,41.062 C53.468,40.381 54.827,40.243 56.069,40.685 C57.312,41.126 58.288,42.103 58.746,43.366 C59.461,45.336 58.625,47.583 56.758,48.711 ZM56.780,44.089 C56.533,43.409 56.032,42.905 55.371,42.670 C54.720,42.439 54.009,42.511 53.419,42.867 L42.447,49.489 C42.407,49.513 42.365,49.535 42.321,49.554 L40.558,50.314 C40.427,50.370 40.287,50.399 40.145,50.399 L32.058,50.399 C31.257,50.399 30.526,49.991 30.102,49.306 C29.679,48.622 29.637,47.782 29.991,47.059 C30.257,46.515 30.716,46.103 31.283,45.900 L37.266,43.749 C37.273,43.747 37.280,43.744 37.288,43.741 C38.529,43.326 39.279,42.039 38.959,40.874 C38.789,40.251 38.384,39.741 37.820,39.439 C37.481,39.257 37.114,39.166 36.743,39.166 C36.498,39.166 36.252,39.206 36.011,39.287 L29.718,41.397 C29.634,41.425 29.546,41.443 29.457,41.448 L13.137,42.543 C12.580,42.580 12.057,42.819 11.662,43.216 L2.858,52.072 C1.954,52.981 1.842,54.449 2.608,55.344 C2.964,55.761 5.257,57.963 7.100,59.732 C8.196,60.785 9.247,61.795 9.998,62.528 L14.106,59.084 C15.496,57.920 17.257,57.278 19.065,57.278 L35.622,57.278 C35.936,57.278 36.242,57.215 36.530,57.091 L44.312,53.736 L44.645,53.565 L55.681,46.905 C56.673,46.306 57.145,45.095 56.780,44.089 ZM38.901,25.455 L38.901,30.372 C38.901,30.373 38.901,30.373 38.901,30.374 L38.901,33.623 C38.901,34.204 38.433,34.676 37.855,34.676 C37.276,34.676 36.808,34.204 36.808,33.623 L36.808,31.190 C26.714,29.783 18.803,21.545 17.831,11.260 C17.801,10.948 17.912,10.638 18.133,10.416 C18.354,10.194 18.661,10.082 18.972,10.113 C26.851,10.866 33.522,15.764 36.808,22.618 L36.808,15.450 C30.853,14.448 26.226,9.522 25.647,3.399 C25.617,3.086 25.728,2.776 25.949,2.554 C26.169,2.332 26.478,2.221 26.788,2.251 C30.993,2.653 34.631,4.997 36.808,8.383 L36.808,4.422 C36.808,1.984 38.780,-0.000 41.204,-0.000 C41.783,-0.000 42.251,0.471 42.251,1.052 C42.251,1.634 41.783,2.106 41.204,2.106 C39.934,2.106 38.901,3.145 38.901,4.422 L38.901,16.883 C42.188,10.029 48.858,5.131 56.737,4.378 C57.047,4.347 57.356,4.459 57.577,4.681 C57.797,4.903 57.908,5.213 57.879,5.525 C56.906,15.810 48.995,24.048 38.901,25.455 ZM20.083,12.378 C21.345,20.219 27.095,26.536 34.600,28.588 L25.949,19.886 C25.540,19.475 25.540,18.809 25.949,18.397 C26.358,17.986 27.020,17.986 27.429,18.397 L36.285,27.305 C34.340,19.597 27.991,13.665 20.083,12.378 ZM27.943,4.560 C28.887,8.903 32.283,12.319 36.601,13.269 C35.657,8.926 32.260,5.510 27.943,4.560 ZM39.424,21.570 L48.280,12.663 C48.689,12.251 49.352,12.251 49.761,12.663 C50.169,13.073 50.169,13.740 49.761,14.151 L41.110,22.853 C48.614,20.801 54.364,14.484 55.626,6.643 C47.718,7.930 41.369,13.862 39.424,21.570 Z"/>
</svg>