<svg 
 xmlns="http://www.w3.org/2000/svg"
 xmlns:xlink="http://www.w3.org/1999/xlink"
 width="65px" height="66px" viewBox="0 0 65 66">
<path fill-rule="evenodd"  fill="rgb(82, 85, 88)"
 d="M64.920,9.293 C64.757,8.899 64.373,8.643 63.947,8.643 L57.138,8.643 L57.138,1.834 C57.138,1.408 56.882,1.024 56.488,0.861 C56.095,0.698 55.642,0.788 55.341,1.089 L47.206,9.223 C45.735,10.695 44.924,12.652 44.924,14.733 L44.924,19.368 L43.208,21.084 C38.616,16.849 32.486,14.258 25.761,14.258 C11.557,14.258 0.000,25.815 0.000,40.020 C0.000,54.224 11.557,65.781 25.761,65.781 C39.966,65.781 51.523,54.225 51.523,40.020 C51.523,33.295 48.932,27.165 44.697,22.573 L46.414,20.857 L51.048,20.857 C53.129,20.857 55.086,20.046 56.557,18.575 L64.692,10.440 C64.993,10.139 65.083,9.686 64.920,9.293 ZM47.030,14.733 C47.030,13.215 47.622,11.786 48.696,10.713 L55.032,4.376 L55.032,9.260 L47.030,17.262 L47.030,14.733 ZM49.417,40.020 C49.417,53.063 38.805,63.675 25.761,63.675 C12.718,63.675 2.106,53.063 2.106,40.020 C2.106,26.976 12.718,16.364 25.761,16.364 C31.905,16.364 37.509,18.719 41.719,22.573 L38.440,25.852 C35.073,22.835 30.628,20.997 25.761,20.997 C15.272,20.997 6.739,29.531 6.739,40.020 C6.739,50.509 15.272,59.042 25.761,59.042 C36.250,59.042 44.784,50.509 44.784,40.020 C44.784,35.153 42.946,30.708 39.929,27.341 L43.208,24.062 C47.062,28.272 49.417,33.876 49.417,40.020 ZM29.201,40.020 C29.201,41.916 27.658,43.459 25.761,43.459 C23.865,43.459 22.322,41.916 22.322,40.020 C22.322,38.123 23.865,36.580 25.761,36.580 C26.327,36.580 26.860,36.718 27.331,36.961 L25.017,39.275 C24.606,39.686 24.606,40.353 25.017,40.764 C25.223,40.969 25.492,41.072 25.762,41.072 C26.031,41.072 26.300,40.970 26.506,40.764 L28.820,38.450 C29.063,38.921 29.201,39.454 29.201,40.020 ZM28.865,35.427 C27.979,34.826 26.911,34.474 25.762,34.474 C22.704,34.474 20.216,36.962 20.216,40.020 C20.216,43.077 22.704,45.565 25.762,45.565 C28.819,45.565 31.307,43.077 31.307,40.020 C31.307,38.871 30.955,37.802 30.354,36.916 L33.660,33.610 C35.084,35.361 35.939,37.592 35.939,40.020 C35.939,45.632 31.374,50.198 25.761,50.198 C20.149,50.198 15.583,45.632 15.583,40.020 C15.583,34.407 20.149,29.842 25.761,29.842 C28.189,29.842 30.420,30.697 32.171,32.121 L28.865,35.427 ZM33.667,30.625 C31.528,28.823 28.770,27.736 25.761,27.736 C18.988,27.736 13.477,33.246 13.477,40.020 C13.477,46.793 18.988,52.304 25.761,52.304 C32.535,52.304 38.045,46.793 38.045,40.020 C38.045,37.011 36.958,34.252 35.156,32.114 L38.438,28.832 C41.075,31.816 42.678,35.734 42.678,40.019 C42.678,49.348 35.089,56.936 25.761,56.936 C16.433,56.936 8.845,49.348 8.845,40.020 C8.845,30.691 16.433,23.103 25.761,23.103 C30.047,23.103 33.965,24.706 36.949,27.343 L33.667,30.625 ZM55.068,17.086 C53.994,18.160 52.567,18.751 51.048,18.751 L48.519,18.751 L56.522,10.749 L61.405,10.749 L55.068,17.086 Z"/>
</svg>