<svg 
 xmlns="http://www.w3.org/2000/svg"
 xmlns:xlink="http://www.w3.org/1999/xlink"
 width="29px" height="29px" viewBox="0 0 29 29">
<path fill-rule="evenodd"  fill="rgb(255, 160, 0)"
 d="M27.783,16.337 C27.551,16.332 27.337,16.256 27.161,16.131 C26.864,15.921 26.674,15.571 26.683,15.179 C26.688,14.940 26.686,14.697 26.676,14.458 C26.652,13.833 27.136,13.305 27.757,13.281 C28.378,13.256 28.901,13.743 28.926,14.369 C28.937,14.654 28.939,14.944 28.933,15.229 C28.919,15.855 28.405,16.351 27.783,16.337 ZM27.511,11.922 C27.159,12.039 26.790,11.972 26.508,11.772 C26.318,11.637 26.168,11.442 26.089,11.202 C26.014,10.975 25.931,10.746 25.843,10.524 C25.612,9.943 25.893,9.283 26.470,9.050 C27.048,8.817 27.702,9.101 27.933,9.682 C28.038,9.947 28.137,10.218 28.226,10.489 C28.421,11.083 28.101,11.724 27.511,11.922 ZM24.723,6.586 L20.903,6.930 C20.475,6.969 20.325,6.709 20.569,6.353 L21.448,5.073 C17.354,2.323 12.118,2.503 8.262,5.180 C8.249,5.189 8.235,5.199 8.222,5.208 C7.127,5.975 6.146,6.942 5.335,8.101 C1.605,13.435 2.878,20.831 8.173,24.588 C8.536,24.845 8.909,25.080 9.292,25.293 C9.294,25.293 9.295,25.294 9.296,25.294 C9.504,25.409 9.720,25.519 9.935,25.621 C9.947,25.626 9.956,25.633 9.967,25.638 C10.883,26.071 11.848,26.381 12.854,26.563 C13.466,26.673 13.873,27.262 13.763,27.879 C13.654,28.495 13.069,28.905 12.457,28.795 C10.440,28.430 8.562,27.639 6.876,26.441 C6.232,25.984 5.633,25.479 5.083,24.932 C5.081,24.930 5.079,24.929 5.078,24.927 C5.073,24.922 5.068,24.917 5.063,24.913 C3.015,22.869 1.648,20.243 1.146,17.324 C1.097,17.038 1.057,16.752 1.026,16.467 C1.023,16.448 1.019,16.431 1.017,16.413 C0.987,16.129 0.965,15.840 0.952,15.556 C0.952,15.546 0.952,15.537 0.952,15.527 C0.821,12.616 1.585,9.756 3.170,7.282 C3.180,7.264 3.189,7.246 3.201,7.228 C3.297,7.079 3.397,6.930 3.499,6.785 C3.561,6.696 3.624,6.608 3.688,6.521 C3.703,6.500 3.720,6.481 3.736,6.461 C5.657,3.876 8.348,2.064 11.432,1.266 C11.446,1.262 11.459,1.258 11.473,1.254 C11.475,1.254 11.477,1.253 11.480,1.253 C11.830,1.164 12.185,1.087 12.546,1.024 C16.123,0.399 19.727,1.174 22.732,3.206 L23.613,1.923 C23.858,1.567 24.152,1.616 24.267,2.034 L25.292,5.757 C25.408,6.174 25.151,6.547 24.723,6.586 ZM17.065,26.552 C17.299,26.509 17.534,26.458 17.765,26.400 C18.369,26.248 18.979,26.618 19.129,27.226 C19.280,27.833 18.912,28.448 18.309,28.600 C18.034,28.669 17.754,28.730 17.475,28.782 C17.165,28.840 16.861,28.763 16.622,28.594 C16.390,28.430 16.219,28.177 16.164,27.874 C16.051,27.258 16.455,26.666 17.065,26.552 ZM22.050,20.235 C21.910,20.235 21.767,20.202 21.633,20.133 L13.335,15.812 L13.335,6.672 C13.335,6.166 13.743,5.755 14.246,5.755 C14.749,5.755 15.156,6.166 15.156,6.672 L15.156,14.694 L22.469,18.503 C22.916,18.736 23.091,19.289 22.860,19.739 C22.698,20.054 22.380,20.235 22.050,20.235 ZM20.813,25.160 C21.019,25.041 21.224,24.913 21.423,24.781 C21.941,24.435 22.639,24.579 22.982,25.102 C23.325,25.624 23.182,26.328 22.664,26.673 C22.427,26.830 22.183,26.982 21.938,27.125 C21.545,27.352 21.074,27.315 20.726,27.069 C20.597,26.977 20.485,26.856 20.400,26.709 C20.090,26.167 20.274,25.473 20.813,25.160 ZM24.329,22.025 C24.702,21.524 25.407,21.422 25.905,21.798 C26.402,22.174 26.503,22.884 26.130,23.385 C25.959,23.614 25.780,23.841 25.596,24.058 C25.216,24.508 24.562,24.585 24.092,24.251 C24.063,24.231 24.036,24.210 24.009,24.187 C23.536,23.781 23.479,23.065 23.882,22.589 C24.036,22.406 24.186,22.217 24.329,22.025 ZM25.914,19.124 C25.999,18.900 26.078,18.670 26.149,18.442 C26.335,17.845 26.967,17.512 27.560,17.699 C28.153,17.887 28.483,18.523 28.297,19.120 C28.212,19.392 28.118,19.665 28.017,19.932 C27.796,20.517 27.146,20.810 26.565,20.587 C26.475,20.553 26.392,20.508 26.317,20.454 C25.906,20.163 25.727,19.619 25.914,19.124 Z"/>
</svg>