<svg 
 xmlns="http://www.w3.org/2000/svg"
 xmlns:xlink="http://www.w3.org/1999/xlink"
 width="53px" height="53px" viewBox="0 0 53 53">
<path fill-rule="evenodd"  fill="rgb(234, 234, 234)"
 d="M26.500,53.000 C11.887,53.000 -0.000,41.113 -0.000,26.500 C-0.000,11.887 11.887,0.000 26.500,0.000 C41.113,0.000 53.000,11.887 53.000,26.500 C53.000,41.113 41.113,53.000 26.500,53.000 ZM26.500,2.260 C13.131,2.260 2.261,13.131 2.261,26.500 C2.261,39.869 13.131,50.739 26.500,50.739 C39.869,50.739 50.739,39.869 50.739,26.500 C50.739,13.131 39.869,2.260 26.500,2.260 ZM37.122,27.430 L22.509,37.424 C22.087,37.781 20.854,37.760 20.746,36.494 L20.746,16.505 C20.843,15.240 22.054,15.240 22.509,15.575 L37.122,25.570 C38.019,26.273 37.500,27.203 37.122,27.430 ZM23.006,18.636 L23.006,34.363 L34.482,26.500 L23.006,18.636 Z"/>
</svg>